PathFileType	4	(X/Y/Z)	Kaydara																																																																																																																																																																																																																												
DataRate	CameraRate	NumFrames	NumMarkers	Units	OrigDataRate	OrigDataStartFrame	OrigNumFrames																																																																																																																																																																																																																								
60	60	4	74	mm	60	855	211																																																																																																																																																																																																																								
Frame#	Time	N_lasi			N_rasi			N_rpsi			N_lpsi			N_fneck			N_bneck			N_fhead			N_rhead			N_lhead			N_rshld			N_relbtop			N_relbext			N_relblow			N_rwrext			N_rwrtop			N_rwrlow			N_lshld			N_lelblow			N_lelbtop			N_lwrext			N_lwrtop			N_lwrlow			N_rtopleg			N_ltopleg			N_rkneefr			N_rkneebk			N_rkneeis			N_lkneefr			N_lknssbk			N_lkneeis			N_rankfr			N_rankis			N_rankbk			N_lankfr			N_lankbk			N_lankis			D_lasi			D_rasi			D_lpsi			D_fneck			D_bneck			D_fhead			D_rhead			D_lhead			D_rshld			D_relbtop			D_relbext			D_relblow			D_rwrext			D_rwrtop			D_rwrlow			D_lshld			D_lelbext			D_lelblow			D_lelbtop			D_lwrext			D_lwrtop			D_lwrlow			D_rtopleg			D_ltopleg			D_rkneefr			D_rkneebk			D_rkneeis			D_lkneefr			D_lknssbk			D_lkneeis			D_rankfr			D_rankis			D_rankbk			D_lankfr			D_lankbk			D_lankis			D_rpsi			N_lelbext		
		X1	Y1	Z1	X2	Y2	Z2	X3	Y3	Z3	X4	Y4	Z4	X5	Y5	Z5	X6	Y6	Z6	X7	Y7	Z7	X8	Y8	Z8	X9	Y9	Z9	X10	Y10	Z10	X11	Y11	Z11	X12	Y12	Z12	X13	Y13	Z13	X14	Y14	Z14	X15	Y15	Z15	X16	Y16	Z16	X17	Y17	Z17	X18	Y18	Z18	X19	Y19	Z19	X20	Y20	Z20	X21	Y21	Z21	X22	Y22	Z22	X23	Y23	Z23	X24	Y24	Z24	X25	Y25	Z25	X26	Y26	Z26	X27	Y27	Z27	X28	Y28	Z28	X29	Y29	Z29	X30	Y30	Z30	X31	Y31	Z31	X32	Y32	Z32	X33	Y33	Z33	X34	Y34	Z34	X35	Y35	Z35	X36	Y36	Z36	X37	Y37	Z37	X38	Y38	Z38	X39	Y39	Z39	X40	Y40	Z40	X41	Y41	Z41	X42	Y42	Z42	X43	Y43	Z43	X44	Y44	Z44	X45	Y45	Z45	X46	Y46	Z46	X47	Y47	Z47	X48	Y48	Z48	X49	Y49	Z49	X50	Y50	Z50	X51	Y51	Z51	X52	Y52	Z52	X53	Y53	Z53	X54	Y54	Z54	X55	Y55	Z55	X56	Y56	Z56	X57	Y57	Z57	X58	Y58	Z58	X59	Y59	Z59	X60	Y60	Z60	X61	Y61	Z61	X62	Y62	Z62	X63	Y63	Z63	X64	Y64	Z64	X65	Y65	Z65	X66	Y66	Z66	X67	Y67	Z67	X68	Y68	Z68	X69	Y69	Z69	X70	Y70	Z70	X71	Y71	Z71	X72	Y72	Z72	X73	Y73	Z73	X74	Y74	Z74
																																																																																																																																																																																																																															
185	14.233	-538.56621	1235.58853	-65.26323	-528.33366	1242.04231	-298.31963	-253.15105	1221.11931	-342.49146	-276.48184	1222.35207	5.08309	-399.92638	1608.08228	-169.79727	-261.61787	1664.68979	-190.20466	-443.07808	1816.56494	-162.68181	-263.73266	1765.01892	-241.51579	-296.76392	1768.3757	-87.53735	-335.10979	1539.34738	-436.8137	-275.83717	1224.07036	-466.39843	-374.06658	1153.395	-428.4417	-365.06096	1220.95444	-448.90545	-285.81556	900.9095	-464.82574	-331.49536	890.2475	-475.95139	-359.92481	905.64384	-440.62279	-262.78072	1622.7594	0.50933	-274.68912	1619.21036	274.90808	-242.05667	1537.59827	282.20882	-228.43678	1588.18573	596.15971	-264.03742	1617.43896	606.48914	-299.2664	1576.34735	602.71194	-429.76803	1040.63362	-429.37489	-373.86414	1015.13466	53.615	-434.00692	561.63918	-253.8512	-328.52562	579.83772	-322.72133	-371.33492	564.27265	-160.93248	-382.29351	539.33647	-94.13007	-255.38969	556.29173	-36.67117	-259.58853	548.23818	-186.58686	-298.23486	140.56368	-269.17143	-299.38473	154.73618	-189.13879	-217.76724	142.83863	-215.08322	-332.52663	193.23421	-115.6136	-258.62698	186.06871	-74.17646	-294.62698	165.06871	-158.17646	-455.48962	1041.96304	1728.99536	-401.26537	1057.27509	1446.60309	-255.99348	1130.037	1749.44412	-410.55191	1565.91339	1600.32013	-275.83332	1590.87479	1614.75403	-442.17922	1784.92081	1605.10025	-281.64139	1727.68799	1534.91287	-296.28616	1725.73975	1688.89618	-322.23484	1561.3382	1424.60098	-380.49206	1426.27823	1142.89848	-436.67648	1423.68973	1194.69955	-379.7377	1508.05954	1177.92686	-584.99382	1541.34888	1031.84044	-580.10593	1595.47745	1056.13609	-603.49739	1574.65317	1101.04599	-364.54544	1498.62106	1834.60281	-323.28888	1164.57848	1791.93146	-335.52834	1198.31032	1878.33725	-262.32107	1177.82249	1849.03275	-337.04487	938.52562	1868.5585	-380.36289	944.66324	1871.78848	-394.03751	955.95169	1824.4252	-307.65182	1005.24712	1407.08633	-323.89549	1006.70761	1793.974	-368.5865	456.92917	1447.70294	-267.25143	490.13321	1421.96503	-278.42138	457.94685	1543.42133	-370.45719	452.65404	1769.00635	-258.20503	485.644	1788.87177	-326.44882	444.15447	1679.61472	-322.4482	130.33624	1417.25571	-294.33334	126.36477	1482.03888	-242.17611	126.93214	1418.07068	-325.95608	133.37864	1790.58411	-253.37379	125.15977	1806.91818	-294.44508	123.51113	1731.97769	-214.99836	1144.81941	1534.23187	-334.4722	1534.94583	288.74487
186	14.25	-538.57151	1235.56	-65.44369	-528.09666	1241.91559	-298.49375	-252.68213	1221.29288	-342.69703	-276.65304	1222.23572	5.04629	-399.96361	1608.29926	-169.59103	-261.51888	1664.55154	-190.32387	-442.32609	1817.08603	-162.66186	-263.3075	1764.74838	-241.48756	-296.13174	1768.3696	-87.57779	-335.16895	1539.55215	-436.71268	-275.65912	1224.2746	-466.54755	-373.86311	1153.6454	-428.59077	-364.82182	1221.14822	-449.18606	-285.60997	900.84885	-464.9987	-331.37779	890.44167	-475.96245	-359.58344	905.84328	-440.48363	-262.88628	1622.73392	0.74977	-274.99151	1618.85986	275.11436	-242.60313	1537.16797	282.41081	-229.36817	1587.33841	596.64932	-264.99853	1616.89194	606.61537	-300.44586	1576.02524	602.73342	-429.04388	1040.69107	-429.39369	-374.07112	1015.06783	53.67915	-433.90659	561.70395	-254.11959	-328.39825	579.89738	-322.89547	-371.40812	564.29394	-161.10106	-382.3513	539.32262	-94.26259	-255.41925	556.2962	-36.84777	-259.63005	548.24081	-186.73458	-298.11657	140.48402	-268.7772	-299.39619	154.7328	-189.17114	-217.68938	142.88401	-215.1729	-332.57366	193.2333	-115.66877	-258.6116	186.1002	-74.25806	-294.6116	165.1002	-158.25806	-455.48164	1041.84212	1730.03021	-401.85722	1057.04941	1447.54089	-255.74617	1130.42267	1749.51797	-410.56686	1566.27594	1599.12003	-275.60375	1591.02142	1614.42078	-441.65653	1785.52246	1603.83408	-281.41325	1727.63229	1533.80707	-295.92197	1725.89935	1687.7742	-321.63498	1567.88681	1429.28253	-390.09766	1459.54239	1140.21439	-446.07796	1458.15414	1192.21497	-381.78661	1537.89474	1180.87898	-583.76423	1601.45111	1040.09499	-572.63439	1652.98157	1067.70454	-598.00476	1632.03415	1111.33804	-364.60217	1498.50128	1834.08493	-323.56426	1164.63875	1791.48605	-335.59071	1198.30925	1877.79205	-262.3855	1177.77184	1848.55057	-337.40177	938.68057	1868.69736	-380.8424	944.81766	1871.98975	-394.52904	956.04218	1824.34097	-308.28753	1005.13649	1407.73666	-324.00627	1006.71349	1794.04068	-368.36243	456.93352	1448.1427	-267.05687	490.09754	1422.19421	-278.0773	457.90913	1543.66486	-370.69035	452.66155	1769.46365	-258.35506	485.69416	1789.17221	-326.72527	444.31343	1679.89059	-322.49004	130.38898	1417.32635	-294.2403	126.34334	1482.13516	-242.17716	126.93254	1418.06824	-326.14117	133.43199	1790.61691	-253.45388	125.11993	1806.9371	-294.52261	123.56684	1732.06558	-215.70028	1145.02235	1534.18274	-335.02312	1534.68506	288.85216
187	14.267	-538.52856	1235.47264	-65.69546	-527.90302	1241.78429	-298.78891	-252.26271	1221.31287	-343.11882	-276.74109	1222.1067	5.00052	-399.98711	1608.517	-169.47025	-261.42132	1664.54895	-190.24164	-441.60942	1817.59064	-162.67603	-262.90127	1764.36493	-241.62298	-295.57596	1768.30002	-87.55237	-335.14271	1539.758	-436.64787	-275.25824	1224.5089	-466.7775	-373.4787	1153.87489	-428.85048	-364.44378	1221.27029	-449.60701	-285.02239	900.90454	-465.70137	-330.86464	890.69168	-476.62743	-359.04964	906.01791	-441.01646	-262.91443	1622.6152	0.96905	-275.14273	1618.35785	275.30436	-243.35627	1536.58585	282.70512	-230.48702	1586.6507	596.85589	-266.02499	1616.39374	606.78883	-301.70298	1575.63812	602.9311	-428.321	1040.6382	-429.65359	-374.17686	1014.98505	53.81077	-433.84003	561.71082	-254.23925	-328.28312	579.9369	-322.95345	-371.4056	564.31335	-161.22093	-382.33891	539.29298	-94.36533	-255.48647	556.2838	-36.9128	-259.61996	548.25573	-186.78974	-298.21003	140.58716	-269.2403	-299.39138	154.7639	-189.20464	-217.65276	142.86862	-215.17937	-332.56691	193.26195	-115.68471	-258.65255	186.09945	-74.27012	-294.65255	165.09945	-158.27012	-455.2309	1041.82816	1731.03317	-402.88197	1056.47537	1448.07343	-255.45155	1130.69847	1749.31183	-410.80711	1566.60294	1597.76276	-275.52628	1591.22284	1613.97446	-441.25809	1786.19156	1602.46689	-281.23886	1727.38953	1532.50885	-295.90918	1726.1087	1686.53351	-321.3073	1573.83026	1434.34784	-398.67252	1492.09229	1140.4097	-454.26525	1491.77551	1193.34633	-383.20854	1566.63925	1186.23352	-579.72221	1657.54913	1052.72743	-562.20673	1706.26923	1083.02048	-589.36512	1685.97397	1125.54955	-364.46205	1498.06488	1833.26675	-323.61835	1164.58481	1790.78018	-335.47993	1198.13133	1876.94199	-262.18048	1177.6693	1847.85263	-337.40356	938.63014	1868.73444	-380.86975	944.82323	1872.22214	-394.64699	955.88936	1824.36966	-309.17923	1005.03922	1408.15857	-324.11694	1006.71951	1794.10751	-368.3033	456.83933	1448.75549	-266.94912	490.0882	1422.25082	-277.77584	457.83047	1543.83072	-370.72746	452.7446	1769.90036	-258.3143	485.69576	1789.3512	-327.00642	444.42123	1680.19806	-322.5103	130.43137	1417.44827	-294.23899	126.27615	1482.12997	-242.18092	126.93274	1418.06732	-326.213	133.42598	1790.74936	-253.44395	125.12342	1806.99493	-294.61182	123.6221	1732.10938	-216.31872	1146.13792	1532.3056	-335.59532	1534.35883	288.91989
188	14.283	-538.50163	1235.32845	-65.9662	-527.78259	1241.59676	-299.09437	-251.94986	1221.25557	-343.5643	-276.71934	1222.07481	5.12186	-399.92813	1608.62289	-169.37277	-261.37756	1664.66278	-190.2829	-441.07483	1817.92023	-162.61177	-262.48976	1763.94699	-241.52466	-294.91755	1768.33389	-87.75386	-335.03757	1539.89044	-436.58619	-274.75048	1224.69559	-466.96453	-373.00751	1154.06197	-429.13479	-363.99887	1221.35513	-450.12016	-284.36256	900.849	-466.74038	-330.27061	890.89073	-477.69802	-358.13786	906.13823	-441.91021	-262.91164	1622.3761	1.1635	-275.57943	1617.83661	275.42984	-244.00194	1536.05255	282.95006	-231.41247	1586.25397	597.26238	-266.98904	1615.94284	606.86928	-302.56348	1575.22476	602.99995	-427.78458	1040.43579	-430.11486	-374.21822	1014.83795	53.80873	-433.75576	561.70292	-254.33529	-328.15346	579.90822	-322.9755	-371.36299	564.30687	-161.26812	-382.38216	539.29012	-94.44159	-255.58071	556.2888	-36.88322	-259.6126	548.22826	-186.7687	-298.14827	140.51542	-269.06355	-299.3943	154.75033	-189.16067	-217.74195	142.84133	-215.08533	-332.57919	193.24478	-115.68321	-258.6635	186.09396	-74.20816	-294.6635	165.09396	-158.20816	-454.9424	1041.83212	1732.04453	-404.08283	1056.07834	1448.8327	-255.10355	1130.93582	1748.78571	-411.17043	1567.00287	1596.48102	-275.39694	1591.34766	1613.694	-441.05419	1786.67389	1600.71609	-281.24395	1727.31476	1531.26556	-296.09133	1726.3205	1685.15854	-321.44184	1579.20197	1440.75882	-405.78548	1523.44223	1143.08052	-460.72803	1524.00818	1197.70073	-383.76251	1593.82126	1194.23019	-573.64853	1709.34647	1069.03709	-550.17807	1753.98346	1100.14893	-578.23898	1735.35202	1143.1179	-364.23672	1497.3143	1832.44217	-323.42606	1164.30359	1789.55566	-334.93191	1197.84698	1875.72525	-261.9199	1177.2187	1846.48392	-337.05109	938.19992	1868.64563	-380.39845	944.58794	1872.19727	-394.40121	955.37743	1824.5015	-310.60753	1004.97513	1408.49106	-324.22768	1006.72531	1794.1745	-368.27953	456.81023	1449.06738	-267.01725	490.10811	1422.27432	-277.5778	457.75696	1543.82782	-370.47302	452.83199	1770.36179	-258.07587	485.65395	1789.45648	-327.09202	444.50661	1680.60806	-322.4527	130.55287	1417.45316	-294.15161	126.30368	1482.20139	-242.26919	126.94661	1417.99835	-326.33228	133.40082	1790.93781	-253.33261	125.16533	1807.03384	-294.66505	123.67167	1732.20947	-218.20349	1147.48108	1531.91406	-336.0775	1533.98483	288.97032
